<?xml version="1.0" encoding="UTF-8"?>
<svg id="Layer_2" data-name="Layer 2" xmlns="http://www.w3.org/2000/svg" viewBox="0 0 560.86 160">
  <defs>
    <style>
      .cls-1 {
        fill: #707070;
      }
    </style>
  </defs>
  <g id="Layer_1-2" data-name="Layer 1">
    <g>
      <path class="cls-1" d="M392.02,76.58c.43-11.01.36-17.17,8.07-26.1,14.86-17.21,44.93-14.26,56.04,5.54.63,1.12,4.23,8.67,4.23,9.17v55.61h-17.43c-1.13-7.02,1.31-14.04,1.41-20.7.11-7.88-.46-20.5-1.37-28.24-2.32-19.74-28.81-20.82-34.87.7-.61,15.77-.88,31.63-.79,47.58l-15.96-.26.67-43.3Z"/>
      <path class="cls-1" d="M408.1,72.56v48.25s-17.43,0-17.43,0l1.35-44.23c-.56,14.23.42,28.64,0,42.89h14.75c1.54-1.55-.93-37.22-.08-43.7.27-2.08,1.27-2.68,1.42-3.21Z"/>
      <path class="cls-1" d="M68.78.57C7.98,7.44-21.18,83.05,17.48,130.2c36.59,44.63,107.77,38.28,134.04-13.39C181.53,57.8,133.87-6.78,68.78.57ZM126.7,104.72c-26.44-17.39-53.18,11.09-80.46,6.09-1.99-.37-12-3.92-12-5.42v-48.91c26.65,19.12,53.77-13.86,81.49-7.12,2.15.52,10.97,4.67,10.97,6.45v48.91Z"/>
      <path class="cls-1" d="M329.7,39.09c-26.04-2.22-39.41,18.36-39.64,42.18-.06,6.17.18,12.53.13,18.78-.09,10.46-4.01,21.27,8.63,22.16,15.61,1.09,8.82-7.23,10.11-18.83,5.95,1.14,30.23-1.76,33.59.59,2.65,1.86.66,13.14,1.25,16.84h17.43v-48.92c0-15.7-16.03-31.49-31.5-32.81ZM343.78,85.96h-34.84c-.02-9.48-1.88-20.83,7.57-26.6,17.72-10.81,30.95,10.1,27.27,26.6Z"/>
      <path class="cls-1" d="M554.16,53.14c-17.86-24.67-57.97-14.98-62.65,15.06-.84,5.41-1.25,50.53.26,52.69,1.25,1.79,13.73,1.96,15.58.67,2.69-1.88.62-14.37,1.26-18.18h34.84v17.43s17.42,0,17.42,0v-52.93c0-1.66-5.2-12.65-6.71-14.73ZM543.44,85.96h-34.84c-5.83-39.01,40.87-39.3,34.84,0Z"/>
      <path class="cls-1" d="M238.36,43.32c-1.44-.72-9.92-4.25-10.49-4.25h-36.85v81.74h39.53c2.1,0,11.67-5.76,13.95-7.49,24.07-18.19,20.7-56.65-6.15-70ZM208.44,103.38v-46.9c46.51-6.47,46.76,54.23,0,46.9Z"/>
    </g>
  </g>
</svg>