<?xml version="1.0" encoding="UTF-8"?>
<svg id="Layer_2" data-name="Layer 2" xmlns="http://www.w3.org/2000/svg" viewBox="0 0 362.17 359.57">
  <defs>
    <style>
      .cls-1 {
        fill: #707070;
      }
    </style>
  </defs>
  <g id="Layer_1-2" data-name="Layer 1">
    <g>
      <path class="cls-1" d="M260.33,1.67c126.35-11.75,136.35,166.64,15.69,173.69-117.24,6.85-128.31-163.21-15.69-173.69ZM264.31,35.64c-67.97,7.78-52.93,120.05,19.07,104.07,60.89-13.52,47.47-111.68-19.07-104.07Z"/>
      <path class="cls-1" d="M122.03,359.37c-.91-.18-4.58-2.64-5.5-3.5l-50.45-65.55c-5.86-7.51-22.34,12.5-24.02,17.07-4.22,11.46,1.39,43.09-2.47,49.53-.34.56-1.5,1.66-2.08,1.92-2.22.98-31.76.97-33.95,0-2.02-.89-3.39-3.69-3.08-5.92l.08-163.04c.6-3.13,3.63-4.22,6.46-4.54,5.46-.63,22.79-.77,27.96.08,2.04.33,3.8,1.28,5.06,2.94l.66,68.34,2.34,1.7,70.16-69.88c2.77-1.54,5.63-2.8,8.84-3.16,8.48-.95,26.36-.75,35.05-.05,3.55.29,6,.71,3.5,4.6l-66.59,65.4c-3.07,3.33-2.06,6.52.09,10l71.49,91.54-1.54,2.51h-42Z"/>
      <path class="cls-1" d="M307.18,310.02c24.43-24.77,12.59-66.72,15.31-98.19,3.08-6.59-2.6-23.7,4.99-26.01,3.58-1.09,23.12-.99,27.57-.47,3.33.39,6.48,1.79,6.53,5.47-3.36,37.89,7.94,85.05-9.23,119.87-32.75,66.42-134.79,65.11-164-3.64-8.82-20.76-6.87-35.76-6.78-57.14.08-17.31-2.23-42.98-.09-59.09.51-3.84,2.79-5.04,6.53-5.47,4.14-.48,26.56-.49,29.28.76,2.87,1.32,3.03,3.97,3.29,6.71,2.77,30.11-7.26,82.2,7.76,107.24,16.49,27.48,56.15,32.96,78.84,9.95Z"/>
      <path class="cls-1" d="M1.77,138.6c1.56-1.13,3.39-1.12,5.22-1.28,25.61-2.15,54.37,2.09,80.08.08,64-5.02,68.03-94.51-4.99-99.08-25.66-1.6-52.73,1.72-78.52-.48-.83-.67-2.08-1.55-2.5-2.5C0,32.97.11,10.78.53,6.85,1.06,1.83,2.25,1.72,6.99,1.33c22.33-1.88,61.6-1.66,84.08,0,70.63,5.22,105.02,91.83,58.49,144.56-37.55,42.56-94.21,26.35-144.5,29.45-2.14-.4-4.11-2.38-4.5-4.5-.91-4.89-.53-21.49-.07-27.02.15-1.83.15-3.66,1.28-5.22Z"/>
    </g>
  </g>
</svg>