<?xml version="1.0" encoding="UTF-8"?>
<svg id="Layer_2" data-name="Layer 2" xmlns="http://www.w3.org/2000/svg" viewBox="0 0 733.16 241.34">
  <defs>
    <style>
      .cls-1 {
        fill: #707070;
      }
    </style>
  </defs>
  <g id="Layer_1-2" data-name="Layer 1">
    <g>
      <path class="cls-1" d="M181.19,85.44c8.67,54.56-26.07,99.16-81.51,101.99-41.97,2.14-83.92-26.91-95.77-67.21C-17.73,46.61,54.26-19.22,125.96,5.17c6.28,2.14,29.97,14.26,32.08,19.96.32.87.59,2.02-.48,2.4-5.57,4.25-12.06,9.89-15.39,15.9h-1.45C86.51-6.02,4.99,52.24,32.71,120.43c23.33,57.39,115.07,56.22,123.48-8.98h-61v-26h86Z"/>
      <path class="cls-1" d="M545.19,173.44l-15.32,10.18c-51.2,17.47-93.43-40.25-67.48-86.48,13.7-24.4,47.76-40.38,73.33-23.72,1.41.92,8.72,7.9,9.47,7.02v-9.99h25.01v111.49c-1.57,14.06-3.94,28.69-13.02,39.99-25.45,31.64-83.71,23.4-96.92-15.86l21.46-9.59c9.29,25.92,51.02,29.84,60.7,2.67.52-1.45,2.79-10.31,2.79-11.21v-14.5ZM508.95,90.7c-37.22,5.11-37.12,66.86-1.02,72.5,51.51,8.05,51.62-79.45,1.02-72.5Z"/>
      <path class="cls-1" d="M379.99,66.75c81.35-4.97,86.73,115.15,8.69,120.68-80.31,5.69-88.54-115.8-8.69-120.68ZM377.95,90.7c-40.77,5.98-35.86,78.98,11.65,72.66,42.07-5.6,36.96-79.79-11.65-72.66Z"/>
      <path class="cls-1" d="M249.99,66.74c81.24-4.01,85.7,117.22,5.75,120.73-78.47,3.45-85.04-116.81-5.75-120.73ZM247.95,90.7c-42.08,5.76-36.84,78.49,10.63,72.63,42.2-5.21,37.63-79.24-10.63-72.63Z"/>
      <path class="cls-1" d="M733.16,112.39l-79.97,32.06c10.35,26.04,44.87,24.25,59.65,3.1l19.23,12.01c.99,1.71-4.88,8.39-6.35,9.91-34.41,35.53-98.58,14.52-102.56-35.49-6.01-75.44,91.28-93.87,110-21.59ZM703.19,103.43c-14.61-29.17-57.29-7.95-54,21.01l54-21.01Z"/>
      <rect class="cls-1" x="586.19" y="6.44" width="25" height="177"/>
    </g>
  </g>
</svg>