<?xml version="1.0" encoding="UTF-8"?>
<svg id="Layer_2" data-name="Layer 2" xmlns="http://www.w3.org/2000/svg" viewBox="0 0 741.36 167.26">
  <defs>
    <style>
      .cls-1 {
        fill: #707070;
      }
    </style>
  </defs>
  <g id="Layer_1-2" data-name="Layer 1">
    <g>
      <g>
        <path class="cls-1" d="M309.36,114.95c-.87,7.34-6.87,18.64-11.97,24.03-19.98,21.09-61.5,18.24-79.75-4.02-.25-1.7,13-12.52,15.37-14.43,5.55,4.25,9.24,7.69,16.32,9.45,18.94,4.72,35.19-3.24,36.08-23.99.48-11.19-1.62-5.26-8.03-2.03-21.8,11.01-46.93,4.78-59.82-16.22-23.01-37.46,13.85-84.75,55.78-67.78,4.42,1.79,7.69,4.87,12.01,6.48.34-1.12-.44-8.99,0-8.99h24v97.5ZM258.14,36.65c-38.11,3.06-26.4,63.62,11.2,49.29,26.77-10.2,16.66-51.52-11.2-49.29Z"/>
        <path class="cls-1" d="M459.36,144.45h-24V17.45h24c.45,0-.33,7.88,0,8.99,4.32-1.6,7.59-4.69,12.01-6.48,41.84-16.94,78.81,30.29,55.78,67.78-11.81,19.22-34.7,26.71-55.78,18.18-3.53-1.43-7.77-5.18-10.04-5.99-1.09-.39-1.98.74-1.98,1.01v43.5ZM484.17,36.67c-33.73,1.83-31.03,51.58.7,51.56,34.59-.02,32.48-53.36-.7-51.56Z"/>
        <path class="cls-1" d="M626.36,106.45h-20c-.4,0,.69-8.04-.51-8.01-15.93,13.82-48.63,14.7-59.68-5.3s6.59-33.66,23.67-38.71c7.41-2.19,26.52-3.2,30.91-6.09,6.06-4,.81-10.41-4.02-12.77-8.76-4.28-20.01-2.04-26.86,4.88-2.17,2.19-4.99,8.9-7.01,9.1l-18.48-4.15c5.15-34.04,62.58-41.87,78.41-12.89.87,1.59,3.57,8.18,3.57,9.43v64.5ZM605.35,63.45c-3.69.11-6.42,2.49-9.99,3.5-7.94,2.25-35.23,3.94-29.48,17.48,3.87,9.11,24.34,4.49,31.17.21,9.35-5.86,8.89-10.74,8.3-21.19Z"/>
        <path class="cls-1" d="M366.16,14.75c61.78-3.87,73.11,82.77,15.25,95.25-70.63,15.24-84.23-90.93-15.25-95.25ZM364.1,36.69c-32.87,5.25-27.52,58.65,11.52,52.52,32.95-5.18,27.18-58.7-11.52-52.52Z"/>
        <path class="cls-1" d="M658.86,16.45l30.49,55,25.51-55h26.5l-62.5,128h-25.5c6.26-16.21,15.76-31.12,21.74-47.35l-40.95-76.93-.78-3.72h25.5Z"/>
      </g>
      <g>
        <path class="cls-1" d="M80.15.09c58.36-2.72,101.47,55.41,82.67,110.66-20.96,61.59-101.7,76.48-143.43,26.51C-25,84.11,11.7,3.29,80.15.09ZM111.36,54.79c.22-6.67-4.41-11.01-10.32-13.18-8.42-3.1-38.61-2.73-47.5-.13-10.75,3.14-16.95,11.9-18.17,22.83-1.32,11.79-1.97,40.55,3.44,50.54,2.71,5,8.38,9.57,13.75,11.25,9.05,2.83,51.7,2.92,60.77.17,11.75-3.56,17.96-14.23,19.01-25.99,1.1-12.31,1.38-29.35-11.08-35.89-.85-.45-6.06-2.6-6.4-2.6h-58c-2.64,0-1.27-7,1-7h53.5Z"/>
        <path class="cls-1" d="M111.99,86.05c2.88-.31,6.34,2.14,6.29,5.25-.02,1.47-2.85,11.63-5.41,11.54-4.18.01-3.53-8.55-5.62-11.54-.24-2.45,2.47-5,4.74-5.25Z"/>
      </g>
    </g>
  </g>
</svg>