<?xml version="1.0" encoding="UTF-8"?>
<svg id="Layer_2" data-name="Layer 2" xmlns="http://www.w3.org/2000/svg" viewBox="0 0 478.52 78.84">
  <defs>
    <style>
      .cls-1 {
        fill: #707070;
      }
    </style>
  </defs>
  <g id="Layer_1-2" data-name="Layer 1">
    <g>
      <path class="cls-1" d="M264.18,0c2.75,1.72,1.57,53.87.81,61.39-5.21,4.28-7.48-1.02-6.79-6.01-2.78,2.32-4.14,4.62-7.94,6.23-10.71,4.53-24.42,1.12-29.31-10.13-11.29-25.94,15.61-48.44,37.26-29.04l1.43-21.78,4.55-.66ZM253.21,25.95c-14.98-14.09-37.4,6.84-24.09,24.84,14.58,19.71,41.75-8.24,24.09-24.84Z"/>
      <path class="cls-1" d="M116.03,27.68c2.69-12.44,26.25-17.14,33.89-5.35,30.28-20.17,38.97,6.85,36.47,33.8-.96,10.36-7.49,6.64-7.49,4.47v-29.93c0-.79-4.01-6.02-5.17-6.8-8.03-5.43-20.28.83-20.28,9.79v26.19h-5.99v-27.69c0-12.84-25.44-13.81-25.44,0v30.68h-5.99c1.49-10.1-2.01-25.88,0-35.17Z"/>
      <path class="cls-1" d="M380.95,60.61c-.47,1.64-3.44,2.78-5.22,2.23l-3-5.97c-39.9,25.48-46.81-35.08.73-20.97.95-4.66-2.28-8.85-6.05-11.15-1.94-1.18-21.37-4.76-10.92-8.06,9.28-2.93,24.46,6.19,24.46,15.47,0,6.3,1.27,23.97,0,28.44ZM373.47,40.41c-7.58-2.08-30.17-3.28-26.35,10.49,3.74,13.47,29.62,4.06,26.35-10.49Z"/>
      <path class="cls-1" d="M32.21,3.74c1.58-5.57,10.48-3.29,10.48,0v71.84c0,4.35-10.48,4.35-10.48,0V3.74Z"/>
      <path class="cls-1" d="M392.92,30.68c1.34-7.51,12.55-15.75,20.21-15.75,6.81,0,20.21,9.22,20.21,15.75v29.93c0,2.82-7.48,2.82-7.48,0v-29.93c0-10.62-25.44-10.62-25.44,0v29.93c0,2.82-7.48,2.82-7.48,0,0-8.31-1.3-22.62,0-29.93Z"/>
      <path class="cls-1" d="M476.74,25.44c-2.04,1.64-15.55-8.09-22.46-2.25-7.89,14.04,17.34,11.79,22.31,19.61,4.25,6.69,1.3,17.91-6.9,19.74-7.68,1.71-28.07.51-25.87-10.15,1.08-1.18,27.24,13.17,28.5-.83,1.12-12.36-27.87-5.94-27.12-23.84.62-14.72,22.78-15.03,31.55-7.47,1.69,1.46.19,5.03-.01,5.19Z"/>
      <path class="cls-1" d="M279.17,2.24c11.3-9.13,6.21,12.96,7.48,14.23,19.93-2.18,20,8.14,0,5.97,1.14,6.47-2.41,29.53,2.11,33.08,3.16,2.49,13.99-.27,12.86,5.07-.95,4.49-22.44,4.25-22.44-7.46V2.24Z"/>
      <path class="cls-1" d="M.78,18.7c1.58-5.57,10.48-3.29,10.48,0v41.91c0,3.65-10.48,3.65-10.48,0C.78,51.81-.97,24.89.78,18.7Z"/>
      <path class="cls-1" d="M72.25,16.84c2.67,2.77,2.49,33.6,1.86,39.31-1.03,9.44-8.95,10.77-10.44,2.92-.92-4.86-.92-33.96,0-38.83.86-4.56,5.27-6.83,8.57-3.41Z"/>
      <path class="cls-1" d="M319.58,62.86h-5.99V29.18c0-5.74,17.36-17.43,23.99-12.02v4.58c-6.61-.57-18.01,4.54-18.01,11.93v29.19Z"/>
      <path class="cls-1" d="M199.84,17.21l3.72-2.24c.72.93,3.76,3.28,3.76,3.74v41.91c0,2.82-7.48,2.82-7.48,0V17.21Z"/>
    </g>
  </g>
</svg>