<?xml version="1.0" encoding="UTF-8"?>
<svg id="Layer_2" data-name="Layer 2" xmlns="http://www.w3.org/2000/svg" viewBox="0 0 963.81 300.5">
  <defs>
    <style>
      .cls-1 {
        fill: #707070;
      }
    </style>
  </defs>
  <g id="Layer_1-2" data-name="Layer 1">
    <g>
      <path class="cls-1" d="M511.62,300.5c-11.65-2.98-23.51-4.19-34.15-10.27-12.45-7.12-18.77-19.86-25.02-32.19l-93.21-202.35h-33.39V8.53h127.03v46.4c0,.05-.7.75-.75.75h-29.37l71.05,160.03,69.53-160.03h-37.15V8.53h104.94v27.34l-118.99,264.63h-.5Z"/>
      <path class="cls-1" d="M176.42,1.07l-11.23-1.07h-20.08C70.22,1.06,2.64,63.45,0,138.96v18.56c1.51,7.45,2.12,15.09,3.76,22.58,27.2,124.61,196.61,156.67,274.38,59.43C352.08,147.07,291.73,14.32,176.42,1.07ZM238.2,199.62c-42.96,69.84-149.32,57.52-175.17-20.04-20.88-62.67,20.93-127.81,87.49-131.27,80.12-4.17,129.04,84.06,87.67,151.31Z"/>
      <path class="cls-1" d="M888.52,20.98c-28.17-15.73-59-22.21-91.32-20.34-74.02,4.3-139.01,62.55-143.01,138.04-6.66,125.51,131.59,196.33,236.34,135.81,98.66-57.01,97.41-198.02-2.01-253.51ZM885.87,208.64c-47.09,60.26-143.08,43.99-168.41-27.78-22.11-62.65,20.45-129.37,87.27-132.55,85.18-4.06,132.79,94.23,81.14,160.33Z"/>
    </g>
  </g>
</svg>