<?xml version="1.0" encoding="UTF-8"?>
<svg id="Layer_2" data-name="Layer 2" xmlns="http://www.w3.org/2000/svg" viewBox="0 0 750.97 214.04">
  <defs>
    <style>
      .cls-1 {
        fill: #707070;
      }
    </style>
  </defs>
  <g id="Layer_1-2" data-name="Layer 1">
    <g>
      <path class="cls-1" d="M545.54,27.69v149.55h-16.58c-.07,0-1.06-.98-1.06-1.06V28.75c0-.07.98-1.06,1.06-1.06h16.58Z"/>
      <path class="cls-1" d="M707.07,89.76c1.7.38,1.14-.3,1.57-.92,2.9-4.19,3.98-7.2,8.29-10.73,9.81-8.01,21.41-11.16,33.8-7.34,1.41,1.65-4.12,15.8-3.46,18.99-15.56-6.24-32.91,1.07-38.42,16.94-.35,1-1.78,6.1-1.78,6.68v63.84h-16.93v-105.81h15.87c.07,0,1.06.98,1.06,1.06v17.28Z"/>
      <path class="cls-1" d="M96.76.39C19.76,6.69-24.41,94.1,14.25,160.78c43.5,75.04,154.99,69.72,190.7-9.17C239.39,75.55,178.92-6.33,96.76.39ZM141.34,15.7c1.69.33,3.63,2.05,4.94,3.16,41.11,34.8,28.8,115.04.43,154.59-2.24,3.12-6.86,8.33-9.59,11.21-.63.67-4.19,4.63-4.96,3.85,7.72-12.35,13.41-26.16,17.28-40.2,10.3-37.32,12.68-85.75-3.05-121.8-.75-1.72-5.78-10.01-5.06-10.81ZM40.12,181.46c-9.15-9.83-16.72-21.2-21-34.02C1.1,93.6,31.32,31.72,84.91,13.59c-13.47,9.47-24.84,20.31-34.02,34.05-23.92,35.83-32.65,86.09-14.3,126.06,1.09,2.37,3.84,5.03,3.52,7.76ZM42.67,141.52c-4.77-39.82,8.44-86.82,37.99-114.54-3.26,7.55-7.49,14.66-10.41,22.39-14.86,39.33-20.18,100.83-1.47,139.4,1.88,3.88,4.44,7.16,6.24,11.03-20.17-11.39-29.7-36.17-32.35-58.29ZM90.67,183.82c-23.85-32.77-25.73-119.28-2.54-152.55,2.89-4.15,9.17-10.83,14.22-11.88,8.93-1.85,16.79,4.44,21.66,11.18,23.9,33.06,25.55,120.59,1.4,153.67-10.86,14.87-24.06,14.26-34.73-.41ZM127.94,201.21c10.29-6.99,19.16-14.41,27.17-23.97,31.44-37.56,44.26-97.72,20.1-142.15-.15-.47.64-.52,1.04-.34.53.23,6.48,7.76,7.3,8.93,38.94,55.8,7.58,137.43-55.61,157.53Z"/>
      <path class="cls-1" d="M352.61,35.45h-58.2v140.73c0,.21-.89.54-.71,1.06h17.64v-55.02h43.38c14.52,0,29.91-16.47,33.87-29.61,7.45-24.7-7.95-57.15-35.99-57.15ZM355.39,104.53c-14.18-.4-28.44.5-42.6.46-.59,0-1.44-.26-1.44-.77v-50.79c0-.19.83-.7,1.06-1.06h38.8c25.69,0,28.36,46.05,4.19,52.16Z"/>
      <path class="cls-1" d="M667.22,71.42h-15.52c-.07,0-1.06.98-1.06,1.06v15.87c-18.19-25.23-53.53-25.24-73.72-2.12-17.6,20.14-17.24,54.21-1.03,75.12,16.94,21.85,48.6,24.18,68.78,5.32,2.31-2.16,3.79-5.61,6.68-6.37v16.93h16.93v-104.75c0-.07-.98-1.06-1.06-1.06ZM621.28,163.04c-50.53,5.3-51.97-72.43-11.02-77.33,52.76-6.31,53.95,72.83,11.02,77.33Z"/>
      <path class="cls-1" d="M448.74,69.5c-67.86,7.15-60.77,115.31,11.79,109.84,70.24-5.29,63.9-117.82-11.79-109.84ZM456.97,163.86c-49.71.85-50.73-77.81-2.05-79.04,7.93-.2,18.85,3.48,24.77,8.72,24.45,21.61,12.25,69.72-22.73,70.32Z"/>
    </g>
  </g>
</svg>