<?xml version="1.0" encoding="UTF-8"?>
<svg id="Layer_2" data-name="Layer 2" xmlns="http://www.w3.org/2000/svg" viewBox="0 0 314.16 119">
  <defs>
    <style>
      .cls-1 {
        fill: #707070;
      }
    </style>
  </defs>
  <g id="Layer_1-2" data-name="Layer 1">
    <g>
      <polygon class="cls-1" points="301.3 19 301.3 39 248.3 39 248.3 49 301.3 49 301.3 99 221.3 99 221.3 79 274.3 79 274.3 69 221.3 69 221.3 19 301.3 19"/>
      <polygon class="cls-1" points="184.3 19 184.3 68 151.3 68 183.3 99 154.8 99 122.3 69 122.3 99 103.3 99 103.3 50 162.3 50 162.3 38 103.3 38 103.3 19 184.3 19"/>
      <path class="cls-1" d="M34.3,80h30v19H15.8l-2.52-5.48.24-69.8c1.43-6.45,16.26-5.79,20.78-3.22v59.5Z"/>
      <path class="cls-1" d="M95.3,69h-21v-30h-30v-20h45.5c1.43,0,5.5,2.94,5.5,4.5v45.5Z"/>
      <path class="cls-1" d="M212.3,19v81c-1.08.37-2.19-1-2.5-1h-16.5V19h19Z"/>
      <polygon class="cls-1" points="95.3 119 74.3 119 74.3 79 93.8 79 95.3 80.5 95.3 119"/>
      <path class="cls-1" d="M40.3,0v5H7.8c-.18,0-2.5,2.32-2.5,2.5v31.5l-4.02.57c-1.05-.74-.92-1.91-1.03-3.02C-.19,32.05-.16,3.91,1.23,1.68c.32-.52,2.18-1.68,2.57-1.68h36.5Z"/>
      <path class="cls-1" d="M64.3,49v19.5l-1.5,1.5h-18.5v-21h20ZM58.31,54.99h-8.01v8.01h8.01v-8.01Z"/>
      <path class="cls-1" d="M310.3,79l3.86.13-.36,37.86c-.27.45-2.72,2-3,2h-36.5v-5h32.5c.41,0,3.5-3.98,3.5-4.5v-30.5Z"/>
    </g>
  </g>
</svg>