<?xml version="1.0" encoding="UTF-8"?>
<svg id="Layer_2" data-name="Layer 2" xmlns="http://www.w3.org/2000/svg" viewBox="0 0 452.32 185.35">
  <defs>
    <style>
      .cls-1 {
        fill: #707070;
      }
    </style>
  </defs>
  <g id="Layer_1-2" data-name="Layer 1">
    <g>
      <path class="cls-1" d="M19.5,21.1c-6.27,1.75,1.31,11.42,7,10l124.03-.03c6.93.83,11.76,7.9,12.48,14.52-2.03,27.88,2.72,59.58-.01,86.99-.83,8.3-5.85,14.73-14.44,15.56l-135.07-.03c-6.57-.79-12.5-7.1-13.39-13.61l-.09-109.91c1.53-10.22,6.69-14.07,16.51-15.49L127.52.08c9.37-1.58,7.42,21.02,3.98,21.02H19.5ZM75.76,48.36c-19.3,2.82-27.53,25.65-10.1,37.57,9.23,6.31,43.83,11.63,33.18,29.52-5.38,9.04-18.85,8.76-27.62,5.93-3.87-1.25-11.36-6.99-12.9-7.14-1.71-.17-5.45,5.05-5.25,6.24.9,5.15,21.53,11.13,26.55,11.49,26.1,1.85,42-25.04,19.71-40.7-8.95-6.29-35.69-9.96-34.15-23.4,1.36-11.91,15.9-12.79,25.02-10.47,3.64.92,10.64,5.95,13.26,3.69,4.09-3.51,2.1-5.91-1.76-8.2-6.94-4.11-18.04-5.69-25.95-4.53Z"/>
      <path class="cls-1" d="M217,106.1v37.5c0,5.96-13.9,6.67-14.97.97l-.08-108.02,1.05-5.45h47.5c1.42,0,10.55,4.42,12.42,5.58,23.78,14.76,23.52,49.95-.62,64.22-2.31,1.36-10.67,5.2-12.8,5.2h-32.5ZM216,91.1h31.5c.6,0,7.79-3.46,8.83-4.17,13.82-9.45,12.17-31.41-2.62-39.04-.87-.45-6.82-2.79-7.21-2.79h-30.5v46Z"/>
      <path class="cls-1" d="M342,83.09c-.18-2.34.07-6.96,2.67-7.83,1.97-.66,10.43-.85,11.2,1.48-1.31,9.24,2.35,66.64-.3,70.42-2.66,3.81-16.99-.08-13.57-8.06-3.97,1.32-6.66,4.15-10.74,5.75-30.04,11.81-60.66-15.22-49.99-45.99,6.14-17.71,25.04-26.33,42.99-23.53,6.51,1.01,11.7,5.69,17.74,7.76ZM310.74,89.34c-5.31.91-12.27,6.53-14.77,11.23-11.5,21.56,15.67,43.51,35.06,28.06,19.07-15.21,4.73-43.56-20.28-39.28Z"/>
      <path class="cls-1" d="M436.16,74.26c1.12-.71,20.4-1.95,15.3,4.79l-61.45,103.56c-1.9,4.13-16.2,3.17-16.93-.11-.68-3.08,25.98-42.86,27.87-49.91l-32.18-52.76c-4.34-8.56,10.99-5.93,15.79-4.79l24.58,39.42,2.33,1.65,24.67-41.83Z"/>
    </g>
  </g>
</svg>