<?xml version="1.0" encoding="UTF-8"?>
<svg id="Layer_2" data-name="Layer 2" xmlns="http://www.w3.org/2000/svg" viewBox="0 0 900.79 193.15">
  <defs>
    <style>
      .cls-1 {
        fill: #707070;
      }
    </style>
  </defs>
  <g id="Layer_1-2" data-name="Layer 1">
    <g>
      <path class="cls-1" d="M900.79,148.46c-3.49.51-7.99-.7-11.07-2.42-1.15-.64-1.15-1.09-1.57-1.87-.02-.04-.59.23-.94.06-3.83-1.82-7.31-10.31-7.35-14.33-.01-1.53.64-3.05.42-4.71-.14-1.05-1.09-1.78-.73-4.28,1.46-10.26.8-21.41,0-31.77-.11-1.36.22-2.03-.12-3.82-.21-1.09-1.73-4.76-1.71-5.14,0-.26,1.2-.02.74-.91l-1.1.21c-2.03-4.46-5.7-8.16-9.82-10.72-5.29-3.29-9.1-3.33-14.78-4.62-.27-.06-.23-.68-.47-.73-.84-.17-1.68.7-2.82.77s-2.03-.41-2.91-.41c-1.66,0-3.31,1.13-4.84-.35v1.44c-.63,0-1.27-.05-1.89.09-5.74,1.24-10.51,4.45-14.53,8.55-.67.69-.36,1.44-1.96,1.09l.36,1.08-1.08-.36c.55,2.14-1.85,4.39-2.78,6.41-.75,1.62-1.34,3.41-1.72,5.15-1.72-.04-.52.62-.59,1.9-.17,3.52-1.35,7.17-1.06,10.86.09,1.18.67,2.33.7,3.26.03,1.08-.65,2.5-.33,3.75l.71-.72c1.95,9.5,8.52,18.01,17.42,22.04,6.97,3.15,16.67,4.01,23.75.92,6.42-2.8,11.2-8.52,15.77-13.6v25.04c0,.44-1.6.67-1.96.93-.6.43-.41,1.11-.81,1.44-5.1,4.28-14.03,7.1-20.65,7.73-3.75.35-7.42-.08-11.18-.19l1.8-.71c-1.17-.23-2.3.38-3.4.37-13.53-.19-30.31-14.32-35.94-26.43l-2.46-5.47,1.08.54-1.14-2.46-.66.3c-1.15-4.63-2.64-9.25-2.88-14.05l.71.72.36-3.6-.71,1.8c-.04-1.23-.25-2.47-.46-3.69-.28-1.65-.26-5.59-.1-7.5.93-11.64,6.07-22.34,13.66-30.84l6.54-5.53.18.9.71.17c.14-.57-.04-1.53.36-1.96.64-.68,5.11-2.97,6.24-3.51,15.01-7.08,34.4-6.65,48.88-.84,16.57,6.64,26.24,21.48,27.62,38.98.1,1.22-.61,4.02.49,4.81v56.21ZM880.97,125.4v-34.59h-.36v34.59h.36ZM874.13,140.17v-23.42h-.36v23.42h.36Z"/>
      <path class="cls-1" d="M0,38.92c1.1-2.69,1.23-6.23,2.93-8.78.61-.92,1.68-1.16,1.78-2.74l1.05.34c-.79-1.02,1.22-2.57,2.08-3.23,1.51-1.15,4.37-3.04,6.21-2.54l-.37-.72c1.39-.72,3.57.12,4.46.01.23-.03.17-.59.5-.71,2.28-.83,2.45.26,2.63,2.3.23,2.63-.53,3.68-.76,5.75-.22,2.05-.26,7.77,0,9.78.09.69.68.34.78,1.03.25,1.89-.71,3.61-.02,5.42l-1.09.36c1.24.59,1.23.98,1.08,2.34l.36-1.44.36,1.44,1.07-.73-.72-.71h34.05l.54.54v18.38c0,.12-.48.55-.36.9H22.34v-1.08s-.54,1.08-.54,1.08l-.54-1.08c-.6,3.37.76,6.57-.75,9.88.63,13.28-.75,27.19.01,40.4.18,3.18.8,8.47,3.03,10.85,1.92,2.05,3.99,1.88,6.51,2.32,7.28,1.28,15.52-.15,23.1.31,1.27.08,2.48.48,3.77.38l-.74,19.44c-.91.03-1.76.33-2.67.39-9.53.62-27.77.68-36.33-2.98-3.69-1.58-7.01-4.34-9.63-7.31,1.48-.15.17-2.14-.18-.54-1.66-2.8-5.11-6.19-4.51-9.73l-.71.37c-.63-3.27-1.59-6.58-1.81-9.92-.08-1.23.89-2.83-.35-3.41V38.92ZM49,65.23h-23.06v.36h23.06v-.36Z"/>
      <path class="cls-1" d="M417.25,121.44c1.69.28,1.83,1.01,1.8,2.52,1.51.4-.29-1.46.89-1.08,1.65.53,4.21,2.53,6,3.37,10.61,5.01,22.04,6.49,32.87,1.25,7.59-3.67,12.93-10.56,15.01-18.69l.71.36c-.62-2.9.55-5.89.72-8.83.7-11.9-3.12-24.39-13.16-31.15-9.77-6.58-25.64-7.58-35.82-.53-2.17,1.5-3.78,4.13-6.15,4.85l.72.53c-.82,1.4-2.89,2.19-2.52,3.79-2-1.35-2.68,1.95-1.44,1.08.04-.03-.1-1.39.72-.54-3.31,6.28-4.94,13.11-5.4,20.19v94.58s-3.02,0-3.02,0l-.41-.73-.33.69c-1.92-.43-3.88-.67-5.7-1.5-6.79-3.09-11-9.98-11.46-17.37-1.6-25.58,1.27-52.96-.01-78.59,1.31-1.12.4-1.36.46-2.5.42-8.83,5.16-22.49,10.59-29.33.64-.81,1.28-2.08,2.32-1.84l-.32-1.02c1.77-1.38,3.15-3.25,4.82-4.75,9.43-8.42,22.26-12.46,34.97-12.26,3.57.05,7.67.56,11.19,1.42.87.21,1.78.36,2.67.4l-.37.72c1.92-.56,4.56.56,6.44,1.31,2.71,1.07,5.38,2.78,7.96,4.13l-.35,1.05c.79.38,1.64-.08,2.35.33,2,1.17,9.1,7.99,10.3,9.93.34.55-.15,1.13-.03,1.24.09.09.78-.03,1.4.6,1.39,1.42,3.76,6,4.68,7.94,5.19,10.97,6.46,22.84,4.87,34.62-.27,1.96-.43,3.93-.86,5.87l-.72-.37c.45,1.18.14,2.63-.43,3.73-.26.5-.9.55-.95.65-.05.1.32.8.16,1.39-1.59,5.7-7.68,13.54-11.93,17.66-9.53,9.24-22.05,14.49-35.34,14.05-1.98-.06-4.18-.7-6.29-.38l2.52-.71c-4.08.51-8.04.06-11.97-1.11-.3-.09-.26-.68-.49-.68-.53-.02-1.23.79-1.58-.37l.72-.36-1.44-.36c.14.34.73.91-.17.71-2.83-.63-6.62-3.05-9.2-4.5v-21.44Z"/>
      <path class="cls-1" d="M724.96,1.45l.36,1.26-.03,89.39c1.2,2.71.35,8.1,0,11.48-.82,7.88-4.9,21.26-10.63,27.57-.91,1-1.82,1.14-2.34,1.65-.35.34.06.86-.3,1.44-.21.34-2.57,2.83-3.05,3.29-2.17,2.12-13.59,10.1-16.24,9.87l-.41-.75-1.96.38,1.8.71c-1.27.29-1.88.87-3.24.37l.37.71c-2.05.14-4.27.99-6.31,1.08-1.77.07-3.54-.57-5.06-.38-.54.07-1.14,1.13-3.22,1.14-33.25.09-54.32-25.52-53.48-57.82.73-27.95,24.47-50.13,52.39-48.86,4.46.2,9.63,1.2,13.89,2.33,4.58,1.22,8.68,3.07,12.96,5.24.45.91-1.37.63-.71,1.43.04.05.51-.07.61.08.81,1.15-.44,17.89.09,20.82-.72-1.13-6.23-3.42-6.41-4.02-.08-.26.44-.89.29-1.03-.07-.06-.57.11-.77-.03-.32-.22-.38-.67-.56-.7-.55-.1-1.19.3-1.93.21-2.6-.32-8.36-3.52-12.07-4.15-2.91-.49-5.99.21-8.24-.02-.69-.07-1.31-.76-1.82-.74-.18,0-.13.65-.44.73-2.52.65-5.16,1.04-7.67,2-4.63,1.76-8.84,4.74-11.88,8.63l-1.46-.17c-.19.93.19.55.72.89-1.26,2.35-2.81,4.54-3.77,7.05-6.26,16.35-1.36,37.71,15.53,45.33,13.32,6.01,30.62,2.86,38.68-9.85.87-1.37,2.09-4.89,2.85-5.72.38-.41.86-.13,1.09-.25.3-.16-.42-5.85,1.82-6.29v-.53s-.69-.16-.69-.16l.7-3.45.71,1.44c-.03-1.45-.39-2.64-.36-4.13.03-1.31.28-3.46,1.11-4.32-1.56-2.39-.43-5.78-.37-8.64.46-21.98-.32-43.95,0-65.97.06-3.98-.03-5.81,1.88-9.62,1.61-3.21,5.86-8.08,9.64-8.2l-.36-.71c2.7-.56,5.47-1.97,8.29-1.26l-.38,2.86.02,89.38.36,1.26V1.45ZM724.24,93.69V2.17h-.36v91.52h.36Z"/>
      <path class="cls-1" d="M600.65,104.14l4.32-.72c-1.54.16-3.41-.22-4.89-.03-.69.09-.34.69-1.03.78-5.71.72-15.18.04-21.3-.01-15.87-.15-34.03-1.52-49.73-.39-3.83.28-1.12,1.17-.94,1.69.35.98.4,2.95.8,4.25,3.91,12.69,19.58,22.25,32.6,21.48,8.04-.48,14.5-4.75,20.17-10.09.76-.72,4.14-4.74,4.51-4.89.53-.21.93.21,1.43.19l-.72-1.07,17.23,11.94c.3.94-8.24,12.16-9.68,12.74-.51.21-1.03-.28-1.44-.03-.53.33.13,1.11-.51,1.66-.28.24-.8.06-1.12.33-.64.54-.86,1.5-2.09,1.91-1.09.36-3.18-.48-2.41,1.69-3.37,1.4-6.44,2.94-9.99,3.9-4.85,1.32-15.68,3.12-20.73,1.8-.51-.13-1.07-.71-1.54-1l-.37.75c-1.41-.71-3.25-.39-4.58-1.12-.36-.2-.52-1.8-1.15.02-2.18-1.1-4.63-1.05-6.15-3.24l-1,.68-9.7-4.68c-10.9-7.1-19.22-17.38-23.12-29.92-1.26-4.04-.74-7.42-1.39-10.87-.46-2.46-1.27-2.91-.98-6.19,2.72-31.34,27.3-54.47,59.57-51.68,1.62.14,4.83.58,5.81,1.76l.34-.72c1.92.86,4,1.22,5.96,1.99,2.68,1.06,6.12,2.71,8.57,4.12,9.52,5.48,18.42,13.63,21.76,24.29.07.23,1.84,2.56,2.36,4.11,2.64,7.92,2.83,16.3,2.62,24.58h-11.53ZM529.67,85.04h59.45c-1.28-4.16-3.08-7.6-5.78-11-.74-.93-1.88-.91-1.43-3.06-.97-.12-.91-.01-1.26.72l-8.47-5.05.72-.36c-.32-1.1-1.34-.32-2.17-.5-2.09-.45-4.17-1.72-6.48-1.66l.72-.71c-3.56.44-6.47-.18-10.16.46-10.62,1.84-18.44,8.65-23.64,17.79-.22.38-1.64,3.24-1.5,3.36ZM550.56,103.06h-23.06v.36h23.06v-.36Z"/>
      <path class="cls-1" d="M205.74,148.46c-10.22.82-19.18-6.89-20.7-16.88.77-36.04-1.69-73.12-.22-109.07.18-4.32.4-8.77,2.46-12.67,1.99-3.75,8.28-8.98,12.54-9.47,1.58-.18,4.1.8,5.91.36v82.33c1.35.91,8.97-.87,11.17-.18l-1.8.71c.81-.03,2.45.28,2.88-.54l-.36-.72c6.81-.88,9.34-7.19,12.5-12.34,2.57-4.2,5.61-9.36,8.42-13.94.75-1.23,2.17-4.6,2.97-5.49.55-.62,2.16-.3,1.7-2.26l1.44.72c-.94-2.48,1.35-2.24,3.24-2.16l-2.88-.72h21.26l-.36.72c1.02.34.63-.64.73-.71.85-.67.95.82,0,1.57-.2.16-1.18.02-1.44.77l.75.38-7.28,12.73-.67-.32c-.2,2.84-2.82,6.45-4.4,9.12-3.1,5.25-6.5,10.48-10.38,14.84-.68.76-1.54,1.35-2.1,2.21l.64,1.39c1.87-.2,4,1.02,5.67,1.92,3.08,1.68,7.88,5.12,8.42,8.7.28-.11.61-.32.87-.01,1.62,1.98,4.36,11.4,4.2,13.91-.06.9-1.7.17-.01,1.76-.39,10.68.41,21.43-.03,32.1-.02.44.27,1.34-.36,1.26v-28.83h-.36v28.65l-.73.39c-2.63.01-7.91-1.67-10.17-3.09-.31-.19-.48-.73-.85-1.03-.81-.63-2.47-1.01-1.96-2.2l-1.06-.03.36-1.08-1.05.34c-4.76-6.41-4.47-13.09-4.37-20.72.01-.73.46-1.63.4-2.1-.03-.24-.69-.19-.75-.47-.17-.79.42-2.21,0-3.18l.72.18v-.9c-.19-.56-1.1-.2-1.26-.51s-1-3.26-1.17-3.91c-.13-.5-.07-1.03-.09-1.53l-.73.18c-.19-1.53-1.25-1.33-1.33-1.4-6.35-6.01-18.7-4.22-27.32-4.2-.67,0-1.42.41-1.76.39-.21-.02-.19-.56-.29-.61-.16-.08-.5.23-.58.16-.2-.18.19-.78-.41-.64l-1.08.72c-.06,1.6,1.08,1.68,1.08,1.8v43.6Z"/>
      <path class="cls-1" d="M354.67,52.86c19.36,12.43,27.42,32.81,23.26,55.74-3.46,19.13-20.59,36.93-39.67,40.71-8.09,1.6-19.65,1.64-27.95-.74-2.72-.78-5.25-2.3-8-3l.36-1.08c-.54.22-.89.46-1.53.3-1.07-.26-9.11-5.66-9.99-6.62-.56-.62-.49-1.56-1.08-2.16l-1.1.19.36-1.08-1.08.36-.03-1.06c-.48.19-.65.16-1.06-.16-1.17-.91-4.48-4.94-5.34-6.23-2.99-4.53-6.37-11.14-7.62-16.52-.04-.17,0-.36,0-.53l1.07.72c.03-1.27-1.37-1.91-1.72-3.14s-.74-5.37-.82-6.75c-.13-2.33.12-4.71.02-7.04l.71,1.8c-.24-3.27-.37-6.53.11-9.8.23-1.58,1.08-2.72.98-4.25l1.07.72v-1.8s-.7.21-.7.21c-.3-1.03,1.36-2.48,1.41-2.63,1.33-4.73,2.39-7.5,5.12-11.75,3.34-5.18,8.29-9.76,13.09-13.57l.18.9.71.17c.15-.53-.04-1.59.36-1.97.27-.26,3.46-2.21,4-2.5,17.89-9.54,38.17-8.16,54.85,2.55ZM345.03,70.06c-6.19-4.49-11.48-6.02-19.11-6.29-1.36-.05-3.5.5-4.32.38-.58-.09-.93-.72-1.46-.74-.21-.01-.15.57-.46.71-2.94,1.3-5.9,1.49-8.82,3.02-6.6,3.48-10.46,7.76-13.55,14.52-.36.79-1.05.2-.42,1.58l-1.07-.72c.64,2.4-.62,4.7-.98,7.13-.86,5.82-.3,9.03-.1,14.67.03.73-.51,1.54-.36,2.34l.71-1.08c.63,3.64,2.2,7.66,3.98,10.9.35.64,1.55.72.71,2.43,1.23-.55,1.72,1.2,2.51,1.99,3.96,3.98,7.11,6.33,12.07,8.11.88.31,1.82.49,2.72.72l-.36.71c1.87-.76,3.71.21,5.59.29,9.34.39,17.88-1.19,24.69-7.67,9.24-8.79,11.4-21.52,9.64-33.79-.99-6.93-5.9-15.08-11.6-19.21Z"/>
      <path class="cls-1" d="M64.86,101.26l-1.08,1.08c-.35-1.09.37-2.59.32-3.44-.16-2.71-.45-1.82.02-5.04.2-1.41-.11-3.04.02-4.48l.71,2.88c.13-2.51.04-5.61.4-8.07,1.12-7.62,8.47-20.24,14.2-25.44,1.12-1.02,1.31-.64,2.21-1.8.67-.87,6.86-5.41,7.33-5.05l-.72,1.07c1.4.23,1.43-1.57,1.78-1.99.7-.82,8.63-4.16,10.01-4.42,1.15-.22.61.05,1.83-.39,6.81-2.44,14.37-2.32,21.24-1.57,33.87,3.68,54.11,36.74,44.41,69.46-4.65,15.69-18.79,29.37-34.24,34.22-3.13.98-5.91,1.37-9.16.88l-.39,1.13c-4.55.2-8.96.21-13.49-.03l2.16-.71c-4.22.69-7.81-.17-11.89-1.09l.36-1.08c-1.05,1.05-2.99-.05-4.32-.55-6.15-2.29-13.96-7.88-18.62-12.55-1.82-1.82-3.18-4.2-5.01-6.01l.2-1.78-1.08.72-4.72-9.53c1.44-.46.91-1.31-.33-.55-.1-.92-.57-1.72-.85-2.59-.27-.8-1.31-4.44-1.31-5.16v-8.11ZM110.62,63.43h-1.09s.02,1.27.02,1.27c-6.55.94-13.74,5.1-17.68,10.44-.95,1.29-1.76,3.41-2.69,4.52-.82.97-.29-.55-.91-.37.95,2.18-.72,3.26-1.27,5.04-.6,1.93-.55,4.2-1.26,6.13l-.71-1.44c.04,2.1-.07,4.22-.02,6.32.2,8.57,1.5,16.54,6.71,23.55,7.49,10.07,19.1,13.17,31.22,11.47,1.9-.27,3.77-1.38,5.83-.97.22-1.6,2.03-1.56,3.45-2.36,10.31-5.85,15.85-16.55,16.2-28.47.08-2.86-.47-5.55,0-8.46l-.71,1.44c-.35-6.16-3.12-11.91-6.86-16.74-1.19-1.53-2.64-2.84-3.8-3.93-.4-.37-.68-.85-1.23-1.13l1.08-.54c-.72-.54-1.44.29-1.79.18-.62-.19-2.48-1.74-3.29-2.12-6.81-3.25-14.11-4.06-21.58-3.11l.36-.71Z"/>
      <path class="cls-1" d="M772.52,46.13l.38,3.05-.17,98.95-.43.29c-3.14.41-6.42-.54-9.27-1.79-5.26-2.3-10.16-8.93-10.94-14.65l-.1-85.84h20.54Z"/>
      <path class="cls-1" d="M769.76,15.37c.35.27.93.25,1.34.64,1.9,1.83,3.58,6.53,3.57,9.1,0,.27-1,4.38-1.18,4.88-1.97,5.6-9.76,8.24-15.14,6.42-.41-.14-.63-2.5-1.69-1.63l1.08,1.26c-5.97-2.2-8.99-8.98-7.2-15.13l.36,1.08.73-1.26c-1.3-.16-.35-1.82.18-2.69,1.26-2.05,3.72-4.01,5.98-4.83,1.34-.49,6.81-.64,8.11-.29,1.71.45,2.67,1.54,3.86,2.46Z"/>
      <rect class="cls-1" x="880.61" y="90.81" width=".36" height="34.59"/>
      <rect class="cls-1" x="873.77" y="116.75" width=".36" height="23.42"/>
      <rect class="cls-1" x="25.94" y="65.23" width="23.06" height=".36"/>
      <rect class="cls-1" x="723.88" y="2.17" width=".36" height="91.52"/>
      <rect class="cls-1" x="527.5" y="103.06" width="23.06" height=".36"/>
    </g>
  </g>
</svg>