<?xml version="1.0" encoding="UTF-8"?>
<svg id="Layer_2" data-name="Layer 2" xmlns="http://www.w3.org/2000/svg" viewBox="0 0 715.29 165.44">
  <defs>
    <style>
      .cls-1 {
        fill: #707070;
      }
    </style>
  </defs>
  <g id="Layer_1-2" data-name="Layer 1">
    <g>
      <path class="cls-1" d="M0,165.44l10.99-41.31C-23.8,61.58,29.75-13.53,100.59,2.09c56.41,12.44,82.44,78.93,49.57,126.83-24.02,35.01-69.68,45.17-107.4,26.08L0,165.44ZM19.99,145.45c1.2,1.2,20.65-5.82,24.37-5.64,3.07.14,10.13,4.89,13.79,6.26,65.89,24.68,121.35-54.35,76.14-108.12-49.77-59.21-148.05-.07-112.85,75.27.93,2,4.54,6.34,4.73,7.95.39,3.3-7.48,22.99-6.18,24.29Z"/>
      <path class="cls-1" d="M208.27,43.12l13.59,53.58,13.23-53.54h17.52s13.23,54.34,13.23,54.34l13.59-54.38h16.39l-20.86,79.87c-3.04-.33-16.62,1.05-17.93-.7l-13.57-52.8-14.36,53.63c-3.57-.78-15.42,1.45-17.09-1.38l-20.11-78.63h16.39Z"/>
      <path class="cls-1" d="M590.05,123.07h-18.39l-5.56-17.22-29.93-.42-6.08,17.64h-17.59l30.75-80.01c3.79.8,15.96-1.42,17.95,1.33l28.85,78.69ZM561.27,91.89l-9.99-28.79-9.99,28.79h19.99Z"/>
      <path class="cls-1" d="M609.24,116.68v26.38h-16.79v-78.35h14.79c1.55,0,1.27,5.12,1.21,6.4,7.73-8.51,19.07-10.27,29.32-4.94,11.96,6.21,14.96,20.91,13.83,33.31-2,22.04-26.01,34.21-42.36,17.2ZM621.76,75.4c-18.76.41-18.19,37.73.64,37.3,18.5-.42,17.76-37.7-.64-37.3Z"/>
      <path class="cls-1" d="M672.4,116.68v26.38h-15.99v-78.35h15.19c.36,0-.27,6.3,0,7.19l5.82-5.76c25.62-11.28,41.47,12.61,37.14,36.34-3.82,20.94-26.78,29.88-42.17,14.2ZM684.92,75.4c-21.55.44-15.87,46.69,6.44,35.85,11.65-5.67,11.02-36.21-6.44-35.85Z"/>
      <path class="cls-1" d="M315.81,43.12v29.58c7.31-11.81,30.15-13.33,36,.38.53,1.25,2.38,7.11,2.38,8.01v41.98h-15.99v-37.98c0-.29-1.39-4.14-1.7-4.69-4.15-7.25-16.13-5.59-19.26,2.12-.25.62-1.42,4.7-1.42,4.97v35.58h-15.99V43.12h15.99Z"/>
      <path class="cls-1" d="M417.35,123.07h-15.59c-1.66,0-.84-4.82-1.61-4.81-9.59,7.88-31.74,9.83-37.61-3.15-5.07-11.21.16-21.22,11.63-24.43,6.82-1.91,31.94-1.13,24.04-13.64-2.6-4.11-13.7-3.41-17.06-.38-2.3,2.08-1.84,6.43-2.18,6.43h-15.99c-2.09-22.79,42.25-25.63,50.54-10.96,6.36,11.25-1.28,37.91,3.83,50.94ZM399.76,95.09c-6.61,3.17-21.85.94-22.82,10.35-.85,8.21,7.37,8.86,13.56,7.97,8.71-1.25,9.53-11.2,9.26-18.31Z"/>
      <path class="cls-1" d="M474.12,103.88c.24.24.16,4.13,2.06,6.33,4.83,5.59,21.59,4.31,20.35-4.29-1.33-9.24-30.97-5.42-35.79-19.44-9.73-28.32,50.73-32.29,50.16-4.19h-15.19c-.33,0-.33-4.15-2.43-5.97-3.99-3.46-18.49-3.99-16.77,4.77.95,4.86,20.31,6.96,25.35,9.04,9.38,3.88,13.02,11.93,9.42,21.72-7.08,19.23-54.17,17.12-52.35-7.97,2.15.41,14.66-.55,15.19,0Z"/>
      <path class="cls-1" d="M445.34,47.92v16.79h11.19v11.19h-11.19v31.58c0,3.63,8.53,4.35,11.19,2.8v12.79c-6.87.8-17.96,1.54-23.6-3.19-.86-.73-3.59-4.53-3.59-5.21v-38.78h-9.59v-11.19h9.59v-16.79h15.99Z"/>
      <path class="cls-1" d="M50.13,44.88c3.49-1.02,9.56-.91,11.59,2.48,1.11,1.86,6.95,16.26,7.01,17.83.19,5.12-7.21,7.43-6.21,12.51.49,2.5,6.94,10.52,9.01,12.62,3.56,3.6,15.45,11.96,20.22,12.65,4.03.58,8.22-9.8,11.01-10.31s17.46,6.22,19.89,8.11c3.46,2.69,0,11.86-2.68,14.74-10.69,11.56-30.77,4.04-42.43-2.42-15.24-8.44-38.87-34.18-36.67-52.7.47-3.92,5.4-14.38,9.27-15.51Z"/>
    </g>
  </g>
</svg>