<?xml version="1.0" encoding="UTF-8"?>
<svg id="Layer_2" data-name="Layer 2" xmlns="http://www.w3.org/2000/svg" viewBox="0 0 583.55 168">
  <defs>
    <style>
      .cls-1 {
        fill: #707070;
      }
    </style>
  </defs>
  <g id="Layer_1-2" data-name="Layer 1">
    <g>
      <path class="cls-1" d="M94.55,0l-9.5,16h-26.5c2.22,8.47,8.55,16.04,12.52,23.92l-9.02,16.06-14-22.96-29.47,51.49,29.48,50.49L125.56,1l2.05.62,46.52,81.38-.34,3.69-47.75,81.31h-45.5l8-16h29c-2.46-5.86-13-18.23-13.83-23.74-.64-4.24,7.3-11.54,7.84-16.26,1.54-1.17,12.33,20.6,13.9,22.37l2.06.62,28.83-50.67-28.83-51.32L48.54,167.99,0,85.09,47.51.61c.3-.39,2.06-.61,2.54-.61h44.5Z"/>
      <path class="cls-1" d="M496.55,25v100h-9.99c.11-2.01-.17-3.91-.72-5.84-1.53-5.42-2.03-.85-3.35.24-7.56,6.24-13.59,7.55-23.48,6.64-40.48-3.71-30.99-89.01,15.83-70.83,4.26,1.65,6.66,5.78,9.23,6.78,2.98,1.16.48-2.32.48-2.49V25h12ZM452.89,67.34c-9.53,9.56-9.86,44.15,5.63,48.19,7.95,2.07,18.42.35,22.88-7.17,4.55-7.68,4.49-29.17.35-37.06-5.04-9.62-21.49-11.36-28.87-3.96Z"/>
      <path class="cls-1" d="M294.05,92c-3.04.74,1.31,11.94,2.7,14.3,8.76,14.9,28.54,9.05,41.8,4.7l-.12,10.89c-24.91,10.44-55.31,3.18-57.86-27.41-4.42-53.02,63.11-57.23,60.9-4.89.28.84-.99,2.41-1.42,2.41h-46ZM328.55,82c.92-26.62-34.08-24.96-35,0h35Z"/>
      <path class="cls-1" d="M417.55,125h-12v-51.5c0-.61-2.3-5.18-2.97-6.03-5.69-7.15-21.42-5.66-27.43.63-1.81,1.9-5.6,10.13-5.6,12.4v44.5c-3.86-.52-9.1,1.43-12-1.5V54l10.07.43,2.43,7.55c10.49-12.28,35.92-13.16,44.23,1.79.51.91,3.27,7.31,3.27,7.73v53.5Z"/>
      <path class="cls-1" d="M207.55,125l24.93-36.5-23.93-34.49,14.01.48,17.49,25.5,17.01-24.97c1.8-1.51,9.42-1.35,12.01-1.01,1.39.18,1.73-.55,1.47,1.49-2.68,4.72-23.27,30.06-23.02,32.94.51,5.99,22.38,29.05,25.04,36.58h-14l-17.54-27.04-2.53.65-16.92,26.38h-14Z"/>
      <path class="cls-1" d="M562.55,38v16h21l-.12,8.38-1.38,1.39c-.41.03-.75-.77-1-.77h-17l-1.13,1.46c.61,9.87-3.43,43.21,3.25,49.42,3.94,3.65,12.45,2.22,17.37,1.13l-.13,8.86c-12.98,5.45-30.08,1.47-31.86-14.36-1.58-14.01,1.3-30.57-.14-44.86l-1.5-1.5-8.37-.13.17-5.85,9.76-4.73,4.18-14.32,6.9-.1Z"/>
      <rect class="cls-1" x="517.55" y="54" width="12" height="71"/>
      <path class="cls-1" d="M523.3,28.19c7.46-.65,10.21,11.35,3.23,14.28-11.22,4.7-13.93-13.34-3.23-14.28Z"/>
    </g>
  </g>
</svg>